# xmcd CD database file
#
# Track frame offsets:
#	150
#	26135
#	46265
#	70165
#	89287
#	114952
#	130432
#	152432
#	167912
#	185675
#	211342
#	228950
#	245772
#	264627
#	286212
#	301470
#
# Disc length: 4362 seconds
#
# Revision: 0
# Processed by: cddbd v1.5.1PL0 Copyright (c) Steve Scherf et al.
# Submitted via: CDex 1.51
#
DISCID=e1110810
DTITLE=Various Artist - TRANCE RAVE presents DJ TORA
DYEAR=2004
DGENRE=Trance
TTITLE0=ANOTHER NIGHT (TYPE-R REMIX) - DJ TORA+R-seq
TTITLE1=TOKYO RAVE 02 (200X REMIX) - DJ TORA
TTITLE2=LOVE SUNSHINE (ATOMIC BOYS VERSION) - ARPEGGIO
TTITLE3=FLY AWAY (ATOMIC BOYS VERSION) - ARPEGGIO FEAT. ICHIYO
TTITLE4=EVERY TIME (CLUB MIX) - DJ TORA+DJ TEN
TTITLE5=FRIENDS - DJ KAYA
TTITLE6=MOTHER FUNKER (CLUB MIX) - DJ TORA+R-seq
TTITLE7=LET 2 GO - DJ KAYA
TTITLE8=BOYS and GIRLS - DJ KAYA and DJ KOUSUKE
TTITLE9=HORIZON (CLUB MIX) - ARPEGGIO
TTITLE10=A WHOLE NEW WORLD - ARPEGGIO
TTITLE11=DA MAJOUR BEATZ - DJ KAYA and DJ KOUSUKE
TTITLE12=PEACE ON MARS - DJ HIROMU
TTITLE13=YOAKE (MIKE KOGLIN REMIX) - MIKE KOGLIN VS UTO
TTITLE14=ANGEL - DJ KAYA FEAT. AMY RIDER
TTITLE15=TSUBASA-WO-KUDASAI - ATOMIC BOYS
EXTD=YEAR: 2004
EXTT0=
EXTT1=
EXTT2=
EXTT3=
EXTT4=
EXTT5=
EXTT6=
EXTT7=
EXTT8=
EXTT9=
EXTT10=
EXTT11=
EXTT12=
EXTT13=
EXTT14=
EXTT15=
PLAYORDER=
